<?xml version="1.0" encoding="utf-8"?>
<!-- Generator: Adobe Illustrator 19.2.1, SVG Export Plug-In . SVG Version: 6.00 Build 0)  -->
<svg version="1.1" id="Layer_1" xmlns="http://www.w3.org/2000/svg" xmlns:xlink="http://www.w3.org/1999/xlink" x="0px" y="0px"
	 viewBox="0 0 602.3 70" style="enable-background:new 0 0 602.3 70;" xml:space="preserve">
<style type="text/css">
	.st0{clip-path:url(#SVGID_2_);fill:#39B54A;}
	.st1{clip-path:url(#SVGID_2_);fill:#ffffff;}
</style>
<g>
	<defs>
		<rect id="SVGID_1_" x="2.7" y="1.4" width="597.9" height="66.3"/>
	</defs>
	<clipPath id="SVGID_2_">
		<use xlink:href="#SVGID_1_"  style="overflow:visible;"/>
	</clipPath>
	<path class="st0" d="M60.8,36.7C48.2,36.7,38,46.9,38,59.5c0,2.8,2.3,2.6,5.1,2.6s5.1,0.2,5.1-2.6c0-3.4,1.4-6.4,3.5-8.7l0.3-0.3
		c2.3-2.2,5.3-3.5,8.7-3.5c2.8,0,2.6-2.3,2.6-5.1C63.4,39,63.6,36.7,60.8,36.7"/>
	<path class="st0" d="M89.4,19H78.3V4c0-2.8-2.3-2.6-5.1-2.6C70.3,1.4,68,1.2,68,4v55.5c0,2.8,2.3,2.6,5.1,2.6
		c2.8,0,5.1,0.2,5.1-2.6V29.3h11.1c2.8,0,2.6-2.3,2.6-5.1C92.1,21.3,92.3,19,89.4,19"/>
	<path class="st0" d="M60.8,19c-22.3,0-40.5,18.1-40.5,40.5c0,2.8,2.3,2.6,5.1,2.6s5.1,0.2,5.1-2.6c0-16.6,13.5-30.2,30.2-30.2
		c2.8,0,2.6-2.3,2.6-5.1C63.4,21.3,63.6,19,60.8,19"/>
	<path class="st0" d="M60.8,1.4c-32,0-58.1,26.1-58.1,58.1c0,2.8,2.3,2.6,5.1,2.6c2.8,0,5.1,0.2,5.1-2.6c0-26.4,21.5-47.8,47.8-47.8
		c2.8,0,2.6-2.3,2.6-5.1C63.4,3.7,63.6,1.4,60.8,1.4"/>
	<path class="st1" d="M112.4,53.7h-5c-1,0-1.5-0.5-1.5-1.7V10.7c0-1.1,0.4-1.7,1.6-1.7h5c1.2,0,1.5,0.7,1.5,1.7v23h2.6
		c1.5,0,2.1-0.4,2.7-1.3l5.4-7.8c0.5-0.7,1.1-1.3,2.1-1.3c1,0,5,0.2,5.4,0.3c0.5,0.2,0.8,0.5,0.8,1.1c0,0.5-0.3,1-0.6,1.4
		c-4.3,6.1-6.1,8.5-7.6,10.4c1.6,2.2,3.4,5,9.2,14c0.4,0.6,0.7,1.1,0.7,1.7c0,0.6-0.4,1-0.9,1.1c-0.4,0.1-4.6,0.3-5.8,0.3
		c-1.1,0-1.6-0.5-2-1.3l-7.3-11.1c-0.6-0.9-1.3-1.1-2.4-1.1h-2.3V52C113.9,53.1,113.3,53.7,112.4,53.7"/>
	<path class="st1" d="M151.5,47.7c3.2,0,5-0.2,6.7-0.7c0.5-0.1,1.3-0.3,1.8-0.3c0.7,0,1.1,0.4,1.4,1c0.3,0.8,0.7,2.7,0.7,3.6
		c0,0.7-0.2,1.2-1,1.5c-2.8,1.2-7,1.6-10.6,1.6c-10.9,0-14.7-4.9-14.7-15.7c0-11.5,4.9-16,14.5-16c11.6,0,12.4,6.4,12.4,16
		c0,0.9-0.1,1.6-0.7,2c-0.3,0.2-0.8,0.4-1.4,0.4h-16.6C144.1,46.7,147,47.7,151.5,47.7 M155.1,35.3c0.1-0.3,0.1-0.8,0.1-1.1
		c0-3.5-1-5.5-5.2-5.5c-4.2,0-5.8,2.2-5.8,6.6H155.1z"/>
	<path class="st1" d="M174.4,53.7h-5c-1,0-1.5-0.6-1.5-1.7V29.3c0-2.1,0.5-2.9,1.8-3.8c2-1.3,7.4-2.8,11.9-2.8c2,0,3.3,0.1,4,0.4
		c0.6,0.2,1.1,0.7,1.1,1.6c0,1-0.1,3.1-0.4,4.1c-0.2,0.7-0.8,1-1.5,1c-0.8,0-2.6-0.1-3.5-0.1c-1.6,0-3.3,0.3-4.3,0.8
		c-0.3,0.2-0.7,0.4-0.8,0.8c-0.2,0.3-0.2,0.8-0.2,1.6V52C176,53,175.4,53.7,174.4,53.7"/>
	<path class="st1" d="M197.3,53.7h-5c-1,0-1.5-0.5-1.5-1.7V10.7c0-1.1,0.4-1.7,1.6-1.7h5c1.2,0,1.5,0.7,1.5,1.7v23h2.6
		c1.5,0,2.1-0.4,2.7-1.3l5.4-7.8c0.5-0.7,1.1-1.3,2.1-1.3c1,0,5,0.2,5.4,0.3c0.5,0.2,0.8,0.5,0.8,1.1c0,0.5-0.3,1-0.6,1.4
		c-4.3,6.1-6.1,8.5-7.6,10.4c1.6,2.2,3.4,5,9.2,14c0.4,0.6,0.7,1.1,0.7,1.7c0,0.6-0.4,1-0.9,1.1c-0.4,0.1-4.6,0.3-5.8,0.3
		c-1.1,0-1.6-0.5-2-1.3l-7.3-11.1c-0.6-0.9-1.3-1.1-2.4-1.1h-2.3V52C198.9,53.1,198.3,53.7,197.3,53.7"/>
	<path class="st1" d="M250,50.7c-0.4,0.9-1.2,1.4-2.2,1.8c-2.5,1.1-7.9,1.9-12.1,1.9c-9.3,0-13.5-3.2-13.5-15.2
		c0-13.1,4.9-16.5,14.8-16.5c1.7,0,4.1,0.2,5.3,0.8V10.5c0-1.4,0.6-1.8,1.8-1.8h4.6c1,0,1.6,0.3,1.6,1.8v38.2
		C250.2,49.6,250.2,50.2,250,50.7 M242.2,31.8c0-1.2-0.2-1.6-0.9-1.9c-0.8-0.4-2.4-0.5-3.7-0.5c-6,0-7.3,2.3-7.3,9.8
		c0,6.2,1.4,8.6,5.9,8.6c1.8,0,3.6-0.1,4.9-0.7c0.4-0.2,0.7-0.5,0.9-0.8c0.1-0.4,0.2-0.8,0.2-1.4V31.8z"/>
	<path class="st1" d="M261.2,18.6c-2.5,0-4.3-1-4.3-4.4c0-3.2,1.6-4.5,4.3-4.5c2.7,0,4.4,1,4.4,4.4
		C265.6,17.4,264.1,18.6,261.2,18.6 M263.8,53.7h-5c-1,0-1.5-0.5-1.5-1.7V25.2c0-1.1,0.4-1.7,1.6-1.7h5c1.2,0,1.5,0.7,1.5,1.7V52
		C265.3,53.1,264.7,53.7,263.8,53.7"/>
	<path class="st1" d="M286.4,47.7c3.2,0,5-0.2,6.7-0.7c0.5-0.1,1.3-0.3,1.8-0.3c0.7,0,1.1,0.4,1.4,1c0.3,0.8,0.7,2.7,0.7,3.6
		c0,0.7-0.2,1.2-1,1.5c-2.8,1.2-7,1.6-10.6,1.6c-10.9,0-14.7-4.9-14.7-15.7c0-11.5,4.9-16,14.5-16c11.6,0,12.4,6.4,12.4,16
		c0,0.9-0.1,1.6-0.7,2c-0.3,0.2-0.8,0.4-1.4,0.4h-16.6C279,46.7,281.9,47.7,286.4,47.7 M290,35.3c0.1-0.3,0.1-0.8,0.1-1.1
		c0-3.5-1-5.5-5.2-5.5c-4.2,0-5.8,2.2-5.8,6.6H290z"/>
	<path class="st1" d="M309.3,53.7h-5c-1,0-1.5-0.6-1.5-1.7V29c0-2,0.8-3.2,2.2-3.7c3.8-1.6,10.7-2.5,15.5-2.5c5.7,0,7.9,1.4,8.8,3.8
		c0.5,1.6,0.6,3.6,0.6,5.9V52c0,1-0.4,1.7-1.5,1.7h-5c-1,0-1.5-0.7-1.5-1.7V34.2c0-1-0.1-2.2-0.3-2.9c-0.4-1.3-1.5-1.7-3.9-1.7
		c-2.5,0-4.4,0.4-5.2,0.8c-0.4,0.1-0.8,0.3-1.1,0.7c-0.3,0.3-0.4,0.8-0.4,1.5V52C310.9,53,310.3,53.7,309.3,53.7"/>
	<path class="st1" d="M344,41.3c-4.9-1.3-7.7-3.5-7.7-9.1c0-5.6,3.4-9.4,12.2-9.4c2.4,0,6.4,0.2,8.8,1.1c0.8,0.2,1.2,0.7,1.2,1.6
		c0,0.7-0.4,2.1-0.8,3.9c-0.1,0.6-0.6,1-1.2,1c-0.5,0-1.3-0.2-1.6-0.2c-2.3-0.5-5-0.7-6.7-0.7c-3.4,0-4,1.2-4,2.6
		c0,1.2,0.3,1.9,3.5,2.8l4.1,1.1c5.8,1.6,7.8,3.6,7.8,9.1c0,5.7-3.4,9.5-12.4,9.5c-3.5,0-8.2-0.5-10.6-1.5c-0.7-0.2-1.1-0.8-1.1-1.6
		c0-0.7,0.5-2.2,1-3.7c0.2-0.7,0.8-1.3,1.5-1.3c0.4,0,1.4,0.3,1.8,0.4c2.5,0.7,5.2,1,7.8,1c3.7,0,4.3-1.4,4.3-2.8
		c0-1.3-0.5-1.8-3.4-2.6L344,41.3z"/>
	<path class="st1" d="M376.1,46c0.8,1,2.8,1.3,5.3,1.5c1,0.1,1.4,0.7,1.4,1.6c0,0.8-0.1,2.5-0.1,3.4c-0.1,1-0.7,1.6-1.9,1.6
		c-6.5,0-9.8-0.7-11.8-3.3c-1.7-2.1-2-4.9-2-9.7v-11h-3.1c-0.9,0-1.6-0.5-1.6-1.6v-3.4c0-0.9,0.5-1.7,1.7-1.7h3.2
		c0,0,0.1-2.3,0.2-6.2c0.1-1.1,0.5-1.9,1.6-1.9h4.6c1,0,1.4,0.5,1.4,1.9v6.2h5.2c1.2,0,1.9,0.6,1.9,1.6v3.4c0,1.1-0.7,1.6-1.7,1.6
		H375v11.2C375,43.8,375.3,45.1,376.1,46"/>
	<path class="st1" d="M399.7,54.3c-8.3,0-12.1-3.8-12.1-15c0-12.7,4.3-16.4,13.9-16.4c3.2,0,6.7,0.3,9.4,1.1c1.1,0.4,1.8,1,1.8,2.5
		v25.9c0,3-0.2,5.3-0.9,7.5c-1.7,5.5-8.7,7.7-18.5,7.7c-1,0-1.4-0.2-1.5-0.8c-0.1-0.5-0.1-1.3-0.1-1.7c0-0.7,0.4-1.3,1.1-1.3
		c10.2-0.3,13.1-2,14.5-4.6c0.7-1.4,1-3.1,1-5.2v-1.3C406.4,53.9,403.4,54.3,399.7,54.3 M408.4,29.3c0-1.1-0.4-1.6-1-1.8
		c-1.4-0.5-3.8-0.7-5.9-0.7c-8,0-9.5,3.6-9.5,12.2c0,7.7,1.7,11.5,8,11.5c2.5,0,5.2-0.3,7.1-1.1c0.6-0.2,1.1-0.6,1.3-1.1
		c0.1-0.2,0.2-0.8,0.2-1.4V29.3z"/>
	<path class="st1" d="M432.6,50.6c3.1,0,5.1-0.4,7-0.9c0.6-0.2,1.1-0.3,1.6-0.3c0.4,0,0.7,0.2,0.8,0.6c0.2,0.5,0.5,1.4,0.5,1.9
		s-0.2,0.8-1,1.1c-2.7,1.1-6.1,1.5-9.4,1.5c-10.1,0-13.7-4.7-13.7-15.7c0-11.3,4.7-15.8,13.6-15.8c10.2,0,11.2,6.1,11.2,14.8
		c0,1-0.1,1.5-0.4,1.8c-0.3,0.2-0.7,0.4-1.2,0.4h-18.7C422.9,48.7,426.4,50.6,432.6,50.6 M439,36.3c0.1-0.5,0.1-0.9,0.1-1.5
		c0-5-1.2-8.2-7.3-8.2c-6.7,0-8.6,3.8-8.8,9.7H439z"/>
	<path class="st1" d="M452,53.7h-2c-0.8,0-1.1-0.4-1.1-1.2V29c0-2,0.7-2.9,1.8-3.4c4-1.8,9.1-2.6,12.9-2.6c4.5,0,6.4,1.4,7.3,3
		c2.5-2.1,7.3-3,11.9-3c5.2,0,7,1.3,7.9,3.7c0.5,1.4,0.5,3.5,0.5,5.9v20c0,0.7-0.2,1.2-1.1,1.2h-2c-0.8,0-1.1-0.4-1.1-1.2V33.3
		c0-1.6-0.1-3.4-0.4-4.1c-0.5-1.5-1.4-2.3-5.1-2.3c-4,0-6.6,1-7.8,1.6c-0.3,0.1-0.8,0.5-1.1,0.9c-0.2,0.3-0.3,0.8-0.3,1.4
		c0,0.4,0.1,1.9,0.1,2.4v19.3c0,0.7-0.2,1.2-1.1,1.2h-2c-0.8,0-1.1-0.4-1.1-1.2V33.1c0-1.6-0.1-3.1-0.4-3.9c-0.6-1.5-1.4-2.3-5-2.3
		c-4.3,0-6.5,0.8-7.8,1.4c-0.4,0.2-1,0.5-1.2,1c-0.2,0.3-0.4,0.9-0.4,1.9v21.4C453.2,53.3,452.9,53.7,452,53.7"/>
	<path class="st1" d="M501.1,16.8c-1.6,0-2.8-0.6-2.8-2.9c0-2.2,1.1-3.1,2.8-3.1c1.7,0,2.8,0.7,2.8,3
		C503.9,16.1,502.9,16.8,501.1,16.8 M502.2,53.7h-2c-0.8,0-1.1-0.4-1.1-1.2V24.9c0-0.8,0.2-1.3,1.1-1.3h2c0.9,0,1.1,0.5,1.1,1.3
		v27.7C503.3,53.3,503.1,53.7,502.2,53.7"/>
	<path class="st1" d="M517.9,39.7c-4.3-1.3-6.7-3.8-6.7-8c0-5.5,3.2-8.8,10.9-8.8c2.4,0,5.5,0.2,7.8,0.8c0.9,0.2,1.1,0.7,1.1,1.2
		c0,0.4-0.2,1.1-0.5,2c-0.1,0.4-0.5,0.7-0.8,0.7c-0.2,0-0.7-0.1-1.1-0.2c-2.3-0.6-4.8-0.8-6.5-0.8c-5.7,0-6.6,2.2-6.6,4.7
		c0,1.8,0.7,3.4,5.2,4.7l4.2,1.3c4.9,1.5,7.3,3.4,7.3,8.1c0,5.2-3.2,8.8-11.3,8.8c-3.3,0-7.3-0.5-9.4-1.4c-0.6-0.2-0.8-0.6-0.8-1.1
		c0-0.4,0.2-1.1,0.5-1.9c0.2-0.6,0.6-0.8,1-0.8c0.3,0,0.9,0.2,1.3,0.4c2.2,0.7,4.6,1,7.5,1c6.2,0,7-2.6,7-4.9c0-2-0.7-3.1-5.3-4.6
		L517.9,39.7z"/>
	<path class="st1" d="M544.9,48c1,1.6,2.9,2.2,6.7,2.3c0.7,0.1,1,0.4,1,1.1c0,0.5-0.1,1.3-0.1,1.8c-0.1,0.7-0.4,0.9-1.3,0.9
		c-4.9,0-7.7-0.6-9.7-2.9c-1.4-1.8-1.9-4.3-1.9-8.9V27.6h-3.9c-0.5,0-1-0.3-1-1.1v-1.6c0-0.7,0.4-1.2,1.1-1.2h3.8c0,0,0-1.9,0.2-6.8
		c0.1-0.8,0.4-1.3,1-1.3h2c0.7,0,1,0.4,1,1.3v6.8h6.7c0.8,0,1.3,0.4,1.3,1.1v1.6c0,0.8-0.5,1.1-1.3,1.1H544v14.9
		C544,45.5,544.3,47,544.9,48"/>
	<path class="st0" d="M560.3,54.1c-1.5,0-3.2-0.7-3.2-3.3c0-2.5,1.5-3.4,3.3-3.4c1.8,0,3.2,0.6,3.2,3.4
		C563.6,53.2,562.2,54.1,560.3,54.1"/>
	<path class="st0" d="M572.4,53.7h-3.3c-0.7,0-1-0.4-1-1.1V37.2c0-1.4,0.5-2.1,1.4-2.5c2.5-1.1,7.1-1.7,10.3-1.7
		c3.8,0,5.3,0.9,5.9,2.5c0.4,1,0.4,2.4,0.4,3.9v13.1c0,0.7-0.3,1.1-1,1.1h-3.4c-0.7,0-1-0.4-1-1.1V40.7c0-0.7,0-1.5-0.2-2
		c-0.2-0.9-1-1.2-2.6-1.2c-1.7,0-2.9,0.3-3.5,0.5c-0.2,0.1-0.6,0.2-0.8,0.4c-0.2,0.2-0.3,0.6-0.3,1v13
		C573.5,53.2,573.1,53.7,572.4,53.7"/>
	<path class="st0" d="M597.4,48.5c0.3,0.6,1.1,1,2.3,1.2c0.6,0.1,0.9,0.5,0.9,1c0,0.8-0.1,1.7-0.2,2.1c-0.2,0.7-0.5,0.9-1.4,0.9
		c-3.8,0-5.5-0.8-6.5-2.4c-0.6-1-0.9-2.4-0.9-4.6v-22c0-0.7,0.3-1.1,1-1.1h3.4c0.8,0,1,0.4,1,1.1v21.3C597,47.3,597.2,48,597.4,48.5
		"/>
</g>
</svg>
